<mxfile host="app.diagrams.net" modified="2021-07-20T10:39:05.064Z" agent="5.0 (Windows NT 10.0; Win64; x64) AppleWebKit/537.36 (KHTML, like Gecko) Chrome/91.0.4472.124 Safari/537.36" etag="yT2b7Ejs1KtL3Xs4u1Yr" version="14.9.0" type="github">
  <diagram id="EwxWfwDMVY7zvHqi7-Qx" name="Page-1">
    <mxGraphModel dx="2272" dy="794" grid="1" gridSize="10" guides="1" tooltips="1" connect="1" arrows="1" fold="1" page="1" pageScale="1" pageWidth="850" pageHeight="1100" math="0" shadow="0">
      <root>
        <mxCell id="0" />
        <mxCell id="1" parent="0" />
        <mxCell id="ZM2d9JkgMeS6SzEDu0aJ-82" value="" style="rounded=1;whiteSpace=wrap;html=1;dashed=1;fontSize=16;" parent="1" vertex="1">
          <mxGeometry x="-830" y="90" width="550" height="240" as="geometry" />
        </mxCell>
        <mxCell id="ZM2d9JkgMeS6SzEDu0aJ-1" value="API Endpoints" style="rounded=1;whiteSpace=wrap;html=1;" parent="1" vertex="1">
          <mxGeometry x="860" y="30" width="120" height="60" as="geometry" />
        </mxCell>
        <mxCell id="ZM2d9JkgMeS6SzEDu0aJ-7" value="&lt;font style=&quot;font-size: 20px&quot;&gt;&lt;b&gt;Main Data Attributes&lt;/b&gt;&lt;/font&gt;" style="rounded=1;whiteSpace=wrap;html=1;" parent="1" vertex="1">
          <mxGeometry x="-830" y="20" width="550" height="60" as="geometry" />
        </mxCell>
        <mxCell id="ZM2d9JkgMeS6SzEDu0aJ-80" value="&lt;h1&gt;activities&lt;/h1&gt;&lt;div style=&quot;font-size: 18px&quot;&gt;&lt;font style=&quot;font-size: 18px&quot;&gt;date: &lt;i&gt;str&lt;/i&gt;&lt;/font&gt;&lt;/div&gt;&lt;div style=&quot;font-size: 18px&quot;&gt;&lt;font style=&quot;font-size: 18px&quot;&gt;&lt;i&gt;&lt;br&gt;&lt;/i&gt;&lt;/font&gt;&lt;/div&gt;&lt;div style=&quot;font-size: 18px&quot;&gt;&lt;font style=&quot;font-size: 18px&quot;&gt;summary: &lt;i&gt;list&lt;/i&gt;&lt;/font&gt;&lt;/div&gt;&lt;blockquote style=&quot;margin: 0 0 0 40px ; border: none ; padding: 0px&quot;&gt;&lt;div style=&quot;font-size: 18px&quot;&gt;&lt;font style=&quot;font-size: 18px&quot;&gt;activity: &lt;i&gt;str&lt;/i&gt;&lt;/font&gt;&lt;/div&gt;&lt;div style=&quot;font-size: 18px&quot;&gt;&lt;font style=&quot;font-size: 18px&quot;&gt;group: &lt;i&gt;str&lt;/i&gt;&lt;/font&gt;&lt;/div&gt;&lt;div style=&quot;font-size: 18px&quot;&gt;&lt;font style=&quot;font-size: 18px&quot;&gt;duration: &lt;i&gt;float&lt;/i&gt;&lt;/font&gt;&lt;/div&gt;&lt;div style=&quot;font-size: 18px&quot;&gt;&lt;font style=&quot;font-size: 18px&quot;&gt;distance: &lt;i&gt;float&lt;/i&gt;&lt;/font&gt;&lt;/div&gt;&lt;div style=&quot;font-size: 18px&quot;&gt;&lt;font style=&quot;font-size: 18px&quot;&gt;steps: &lt;i&gt;int&lt;/i&gt;&lt;/font&gt;&lt;/div&gt;&lt;/blockquote&gt;&lt;div style=&quot;font-size: 18px&quot;&gt;&lt;font style=&quot;font-size: 18px&quot;&gt;&lt;br&gt;&lt;/font&gt;&lt;/div&gt;&lt;div style=&quot;font-size: 18px&quot;&gt;&lt;font style=&quot;font-size: 18px&quot;&gt;segments: &lt;i&gt;list&lt;/i&gt;&lt;/font&gt;&lt;/div&gt;&lt;blockquote style=&quot;margin: 0 0 0 40px ; border: none ; padding: 0px&quot;&gt;&lt;div style=&quot;font-size: 18px&quot;&gt;&lt;font style=&quot;font-size: 18px&quot;&gt;type: &lt;i&gt;str&lt;/i&gt;&lt;/font&gt;&lt;/div&gt;&lt;div style=&quot;font-size: 18px&quot;&gt;&lt;font style=&quot;font-size: 18px&quot;&gt;startTime: &lt;i&gt;datetime_str&lt;/i&gt;&lt;/font&gt;&lt;/div&gt;&lt;div style=&quot;font-size: 18px&quot;&gt;&lt;font style=&quot;font-size: 18px&quot;&gt;endTime: &lt;i&gt;datetime_str&lt;/i&gt;&lt;/font&gt;&lt;/div&gt;&lt;div style=&quot;font-size: 18px&quot;&gt;&lt;font style=&quot;font-size: 18px&quot;&gt;&lt;br&gt;&lt;/font&gt;&lt;/div&gt;&lt;div style=&quot;font-size: 18px&quot;&gt;&lt;font style=&quot;font-size: 18px&quot;&gt;activities: &lt;i&gt;list&lt;/i&gt;&lt;/font&gt;&lt;/div&gt;&lt;/blockquote&gt;&lt;blockquote style=&quot;margin: 0 0 0 40px ; border: none ; padding: 0px&quot;&gt;&lt;blockquote style=&quot;margin: 0 0 0 40px ; border: none ; padding: 0px&quot;&gt;&lt;div style=&quot;font-size: 18px&quot;&gt;&lt;font style=&quot;font-size: 18px&quot;&gt;activity: &lt;i&gt;str&lt;/i&gt;&lt;/font&gt;&lt;/div&gt;&lt;/blockquote&gt;&lt;blockquote style=&quot;margin: 0 0 0 40px ; border: none ; padding: 0px&quot;&gt;&lt;div style=&quot;font-size: 18px&quot;&gt;&lt;font style=&quot;font-size: 18px&quot;&gt;group: &lt;i&gt;str&lt;/i&gt;&lt;/font&gt;&lt;/div&gt;&lt;/blockquote&gt;&lt;blockquote style=&quot;margin: 0 0 0 40px ; border: none ; padding: 0px&quot;&gt;&lt;div style=&quot;font-size: 18px&quot;&gt;&lt;font style=&quot;font-size: 18px&quot;&gt;manual: &lt;i&gt;bool&lt;/i&gt;&lt;/font&gt;&lt;/div&gt;&lt;/blockquote&gt;&lt;blockquote style=&quot;margin: 0 0 0 40px ; border: none ; padding: 0px&quot;&gt;&lt;div style=&quot;font-size: 18px&quot;&gt;&lt;font style=&quot;font-size: 18px&quot;&gt;startTime: &lt;i&gt;datetime_str&lt;/i&gt;&lt;/font&gt;&lt;/div&gt;&lt;div style=&quot;font-size: 18px&quot;&gt;&lt;font style=&quot;font-size: 18px&quot;&gt;endTime: &lt;i&gt;datetime_str&lt;/i&gt;&lt;/font&gt;&lt;/div&gt;&lt;div style=&quot;font-size: 18px&quot;&gt;&lt;font style=&quot;font-size: 18px&quot;&gt;duration: &lt;i&gt;float&lt;/i&gt;&lt;/font&gt;&lt;/div&gt;&lt;div style=&quot;font-size: 18px&quot;&gt;&lt;font style=&quot;font-size: 18px&quot;&gt;distance: &lt;i&gt;float&lt;/i&gt;&lt;/font&gt;&lt;/div&gt;&lt;div style=&quot;font-size: 18px&quot;&gt;&lt;font style=&quot;font-size: 18px&quot;&gt;steps: &lt;i&gt;int&lt;/i&gt;&lt;/font&gt;&lt;/div&gt;&lt;/blockquote&gt;&lt;span style=&quot;font-size: 18px&quot;&gt;&lt;blockquote style=&quot;margin: 0 0 0 40px ; border: none ; padding: 0px&quot;&gt;&lt;span style=&quot;font-size: 18px&quot;&gt;&lt;br&gt;&lt;/span&gt;&lt;/blockquote&gt;lastUpdate: &lt;i&gt;datetime_str&lt;/i&gt;&lt;/span&gt;&lt;/blockquote&gt;&lt;span style=&quot;font-size: 18px&quot;&gt;&lt;br&gt;lastUpdate: &lt;i&gt;datetime_str&lt;/i&gt;&lt;/span&gt;" style="text;html=1;strokeColor=none;fillColor=none;spacing=5;spacingTop=-20;whiteSpace=wrap;overflow=hidden;rounded=0;" parent="1" vertex="1">
          <mxGeometry x="-800" y="520" width="280" height="632" as="geometry" />
        </mxCell>
        <mxCell id="ZM2d9JkgMeS6SzEDu0aJ-16" value="period" style="swimlane;fontStyle=0;childLayout=stackLayout;horizontal=1;startSize=26;horizontalStack=0;resizeParent=1;resizeParentMax=0;resizeLast=0;collapsible=1;marginBottom=0;fontSize=16;" parent="1" vertex="1">
          <mxGeometry x="-800" y="120" width="140" height="181" as="geometry">
            <mxRectangle x="310" y="250" width="70" height="26" as="alternateBounds" />
          </mxGeometry>
        </mxCell>
        <mxCell id="ZM2d9JkgMeS6SzEDu0aJ-17" value="daily" style="text;strokeColor=none;fillColor=none;align=left;verticalAlign=top;spacingLeft=4;spacingRight=4;overflow=hidden;rotatable=0;points=[[0,0.5],[1,0.5]];portConstraint=eastwest;fontSize=16;" parent="ZM2d9JkgMeS6SzEDu0aJ-16" vertex="1">
          <mxGeometry y="26" width="140" height="31.000000000000004" as="geometry" />
        </mxCell>
        <mxCell id="ZM2d9JkgMeS6SzEDu0aJ-18" value="weekly" style="text;strokeColor=none;fillColor=none;align=left;verticalAlign=top;spacingLeft=4;spacingRight=4;overflow=hidden;rotatable=0;points=[[0,0.5],[1,0.5]];portConstraint=eastwest;fontSize=16;" parent="ZM2d9JkgMeS6SzEDu0aJ-16" vertex="1">
          <mxGeometry y="57" width="140" height="31.000000000000004" as="geometry" />
        </mxCell>
        <mxCell id="ZM2d9JkgMeS6SzEDu0aJ-19" value="monthly" style="text;strokeColor=none;fillColor=none;align=left;verticalAlign=top;spacingLeft=4;spacingRight=4;overflow=hidden;rotatable=0;points=[[0,0.5],[1,0.5]];portConstraint=eastwest;fontSize=16;" parent="ZM2d9JkgMeS6SzEDu0aJ-16" vertex="1">
          <mxGeometry y="88" width="140" height="31.000000000000004" as="geometry" />
        </mxCell>
        <mxCell id="ZM2d9JkgMeS6SzEDu0aJ-23" value="yearly" style="text;strokeColor=none;fillColor=none;align=left;verticalAlign=top;spacingLeft=4;spacingRight=4;overflow=hidden;rotatable=0;points=[[0,0.5],[1,0.5]];portConstraint=eastwest;fontSize=16;" parent="ZM2d9JkgMeS6SzEDu0aJ-16" vertex="1">
          <mxGeometry y="119" width="140" height="31.000000000000004" as="geometry" />
        </mxCell>
        <mxCell id="ZM2d9JkgMeS6SzEDu0aJ-24" value="full" style="text;strokeColor=none;fillColor=none;align=left;verticalAlign=top;spacingLeft=4;spacingRight=4;overflow=hidden;rotatable=0;points=[[0,0.5],[1,0.5]];portConstraint=eastwest;fontSize=16;" parent="ZM2d9JkgMeS6SzEDu0aJ-16" vertex="1">
          <mxGeometry y="150" width="140" height="31.000000000000004" as="geometry" />
        </mxCell>
        <mxCell id="ZM2d9JkgMeS6SzEDu0aJ-25" value="type" style="swimlane;fontStyle=0;childLayout=stackLayout;horizontal=1;startSize=26;horizontalStack=0;resizeParent=1;resizeParentMax=0;resizeLast=0;collapsible=1;marginBottom=0;fontSize=16;" parent="1" vertex="1">
          <mxGeometry x="-630" y="120" width="140" height="150" as="geometry">
            <mxRectangle x="310" y="250" width="70" height="26" as="alternateBounds" />
          </mxGeometry>
        </mxCell>
        <mxCell id="ZM2d9JkgMeS6SzEDu0aJ-26" value="activities" style="text;strokeColor=none;fillColor=none;align=left;verticalAlign=top;spacingLeft=4;spacingRight=4;overflow=hidden;rotatable=0;points=[[0,0.5],[1,0.5]];portConstraint=eastwest;fontSize=16;" parent="ZM2d9JkgMeS6SzEDu0aJ-25" vertex="1">
          <mxGeometry y="26" width="140" height="30.999999999999996" as="geometry" />
        </mxCell>
        <mxCell id="ZM2d9JkgMeS6SzEDu0aJ-27" value="places" style="text;strokeColor=none;fillColor=none;align=left;verticalAlign=top;spacingLeft=4;spacingRight=4;overflow=hidden;rotatable=0;points=[[0,0.5],[1,0.5]];portConstraint=eastwest;fontSize=16;" parent="ZM2d9JkgMeS6SzEDu0aJ-25" vertex="1">
          <mxGeometry y="57" width="140" height="30.999999999999996" as="geometry" />
        </mxCell>
        <mxCell id="ZM2d9JkgMeS6SzEDu0aJ-28" value="storyline" style="text;strokeColor=none;fillColor=none;align=left;verticalAlign=top;spacingLeft=4;spacingRight=4;overflow=hidden;rotatable=0;points=[[0,0.5],[1,0.5]];portConstraint=eastwest;fontSize=16;" parent="ZM2d9JkgMeS6SzEDu0aJ-25" vertex="1">
          <mxGeometry y="88" width="140" height="30.999999999999996" as="geometry" />
        </mxCell>
        <mxCell id="ZM2d9JkgMeS6SzEDu0aJ-29" value="summary" style="text;strokeColor=none;fillColor=none;align=left;verticalAlign=top;spacingLeft=4;spacingRight=4;overflow=hidden;rotatable=0;points=[[0,0.5],[1,0.5]];portConstraint=eastwest;fontSize=16;" parent="ZM2d9JkgMeS6SzEDu0aJ-25" vertex="1">
          <mxGeometry y="119" width="140" height="30.999999999999996" as="geometry" />
        </mxCell>
        <mxCell id="ZM2d9JkgMeS6SzEDu0aJ-31" value="date" style="swimlane;fontStyle=0;childLayout=stackLayout;horizontal=1;startSize=26;horizontalStack=0;resizeParent=1;resizeParentMax=0;resizeLast=0;collapsible=1;marginBottom=0;fontSize=16;" parent="1" vertex="1">
          <mxGeometry x="-450" y="120" width="140" height="119" as="geometry">
            <mxRectangle x="310" y="250" width="70" height="26" as="alternateBounds" />
          </mxGeometry>
        </mxCell>
        <mxCell id="ZM2d9JkgMeS6SzEDu0aJ-32" value="year" style="text;strokeColor=none;fillColor=none;align=left;verticalAlign=top;spacingLeft=4;spacingRight=4;overflow=hidden;rotatable=0;points=[[0,0.5],[1,0.5]];portConstraint=eastwest;fontSize=16;" parent="ZM2d9JkgMeS6SzEDu0aJ-31" vertex="1">
          <mxGeometry y="26" width="140" height="31.000000000000004" as="geometry" />
        </mxCell>
        <mxCell id="ZM2d9JkgMeS6SzEDu0aJ-33" value="month" style="text;strokeColor=none;fillColor=none;align=left;verticalAlign=top;spacingLeft=4;spacingRight=4;overflow=hidden;rotatable=0;points=[[0,0.5],[1,0.5]];portConstraint=eastwest;fontSize=16;" parent="ZM2d9JkgMeS6SzEDu0aJ-31" vertex="1">
          <mxGeometry y="57" width="140" height="31.000000000000004" as="geometry" />
        </mxCell>
        <mxCell id="ZM2d9JkgMeS6SzEDu0aJ-34" value="day" style="text;strokeColor=none;fillColor=none;align=left;verticalAlign=top;spacingLeft=4;spacingRight=4;overflow=hidden;rotatable=0;points=[[0,0.5],[1,0.5]];portConstraint=eastwest;fontSize=16;" parent="ZM2d9JkgMeS6SzEDu0aJ-31" vertex="1">
          <mxGeometry y="88" width="140" height="31.000000000000004" as="geometry" />
        </mxCell>
        <mxCell id="ZM2d9JkgMeS6SzEDu0aJ-83" value="&lt;span style=&quot;font-size: 20px&quot;&gt;&lt;b&gt;Data Types Structure&lt;/b&gt;&lt;br&gt;&lt;/span&gt;" style="rounded=1;whiteSpace=wrap;html=1;" parent="1" vertex="1">
          <mxGeometry x="-800" y="400" width="1120" height="60" as="geometry" />
        </mxCell>
        <mxCell id="ZM2d9JkgMeS6SzEDu0aJ-84" value="&lt;h1&gt;summary&lt;/h1&gt;&lt;div style=&quot;font-size: 18px&quot;&gt;&lt;div&gt;date: &lt;i&gt;str&lt;/i&gt;&lt;/div&gt;&lt;div&gt;summary: &lt;i&gt;list&lt;/i&gt;&lt;/div&gt;&lt;blockquote style=&quot;font-size: 12px ; margin: 0px 0px 0px 40px ; border: none ; padding: 0px&quot;&gt;&lt;div style=&quot;font-size: 18px&quot;&gt;activity: &lt;i&gt;str&lt;/i&gt;&lt;/div&gt;&lt;div style=&quot;font-size: 18px&quot;&gt;group: &lt;i&gt;str&lt;/i&gt;&lt;/div&gt;&lt;div style=&quot;font-size: 18px&quot;&gt;duration: &lt;i&gt;float&lt;/i&gt;&lt;/div&gt;&lt;div style=&quot;font-size: 18px&quot;&gt;distance: &lt;i&gt;float&lt;/i&gt;&lt;/div&gt;&lt;div style=&quot;font-size: 18px&quot;&gt;steps: &lt;i&gt;int&lt;/i&gt;&lt;/div&gt;&lt;/blockquote&gt;lastUpdate: &lt;i&gt;datetime_str&lt;/i&gt;&lt;br&gt;&lt;/div&gt;" style="text;html=1;strokeColor=none;fillColor=none;spacing=5;spacingTop=-20;whiteSpace=wrap;overflow=hidden;rounded=0;dashed=1;" parent="1" vertex="1">
          <mxGeometry x="-510" y="520" width="210" height="232" as="geometry" />
        </mxCell>
        <mxCell id="ZM2d9JkgMeS6SzEDu0aJ-85" value="&lt;h1&gt;places&lt;/h1&gt;&lt;div style=&quot;font-size: 18px&quot;&gt;&lt;div&gt;date: &lt;i&gt;str&lt;/i&gt;&lt;/div&gt;&lt;div&gt;&lt;div&gt;segments:&amp;nbsp;&lt;i&gt;list&lt;/i&gt;&lt;/div&gt;&lt;blockquote style=&quot;margin: 0px 0px 0px 40px ; border: none ; padding: 0px&quot;&gt;&lt;div&gt;type:&amp;nbsp;&lt;i&gt;str&lt;/i&gt;&lt;/div&gt;&lt;div&gt;startTime:&amp;nbsp;&lt;i&gt;datetime_str&lt;/i&gt;&lt;/div&gt;&lt;div&gt;endTime:&amp;nbsp;&lt;i&gt;datetime_str&lt;/i&gt;&lt;/div&gt;&lt;div&gt;&lt;br&gt;&lt;/div&gt;&lt;div&gt;place: &lt;i&gt;dict&lt;/i&gt;&lt;/div&gt;&lt;/blockquote&gt;&lt;/div&gt;&lt;/div&gt;&lt;blockquote style=&quot;margin: 0 0 0 40px ; border: none ; padding: 0px&quot;&gt;&lt;div style=&quot;font-size: 18px&quot;&gt;&lt;div&gt;&lt;blockquote style=&quot;margin: 0px 0px 0px 40px ; border: none ; padding: 0px&quot;&gt;&lt;div&gt;id: &lt;i&gt;int&lt;/i&gt;&lt;/div&gt;&lt;/blockquote&gt;&lt;/div&gt;&lt;/div&gt;&lt;div style=&quot;font-size: 18px&quot;&gt;&lt;div&gt;&lt;blockquote style=&quot;margin: 0px 0px 0px 40px ; border: none ; padding: 0px&quot;&gt;&lt;div&gt;type: &lt;i&gt;str&lt;/i&gt;&lt;/div&gt;&lt;/blockquote&gt;&lt;/div&gt;&lt;/div&gt;&lt;div style=&quot;font-size: 18px&quot;&gt;&lt;div&gt;&lt;blockquote style=&quot;margin: 0px 0px 0px 40px ; border: none ; padding: 0px&quot;&gt;&lt;div&gt;&lt;br&gt;&lt;/div&gt;&lt;div&gt;location: &lt;i&gt;dict&lt;/i&gt;&lt;/div&gt;&lt;/blockquote&gt;&lt;/div&gt;&lt;/div&gt;&lt;/blockquote&gt;&lt;blockquote style=&quot;margin: 0 0 0 40px ; border: none ; padding: 0px&quot;&gt;&lt;blockquote style=&quot;margin: 0 0 0 40px ; border: none ; padding: 0px&quot;&gt;&lt;div style=&quot;font-size: 18px&quot;&gt;&lt;div&gt;&lt;blockquote style=&quot;margin: 0px 0px 0px 40px ; border: none ; padding: 0px&quot;&gt;&lt;div&gt;lat: &lt;i&gt;float&lt;/i&gt;&lt;/div&gt;&lt;/blockquote&gt;&lt;/div&gt;&lt;/div&gt;&lt;/blockquote&gt;&lt;blockquote style=&quot;margin: 0 0 0 40px ; border: none ; padding: 0px&quot;&gt;&lt;div style=&quot;font-size: 18px&quot;&gt;&lt;div&gt;&lt;blockquote style=&quot;margin: 0px 0px 0px 40px ; border: none ; padding: 0px&quot;&gt;&lt;div&gt;lon: &lt;i&gt;float&lt;/i&gt;&lt;/div&gt;&lt;/blockquote&gt;&lt;/div&gt;&lt;/div&gt;&lt;/blockquote&gt;&lt;/blockquote&gt;&lt;div style=&quot;font-size: 18px&quot;&gt;&lt;blockquote style=&quot;margin: 0px 0px 0px 40px ; border: none ; padding: 0px&quot;&gt;&lt;div&gt;&lt;span&gt;&lt;br&gt;&lt;/span&gt;&lt;/div&gt;&lt;div&gt;&lt;span&gt;lastUpdate: &lt;/span&gt;&lt;i&gt;datetime_str&lt;/i&gt;&lt;/div&gt;&lt;/blockquote&gt;&lt;span&gt;&lt;div style=&quot;font-size: 18px&quot;&gt;&lt;span&gt;&lt;br&gt;&lt;/span&gt;&lt;/div&gt;lastUpdate:&amp;nbsp;&lt;/span&gt;&lt;i&gt;datetime_str&lt;/i&gt;&lt;br&gt;&lt;/div&gt;" style="text;html=1;strokeColor=none;fillColor=none;spacing=5;spacingTop=-20;whiteSpace=wrap;overflow=hidden;rounded=0;dashed=1;" parent="1" vertex="1">
          <mxGeometry x="-280" y="520" width="270" height="422" as="geometry" />
        </mxCell>
        <mxCell id="ZM2d9JkgMeS6SzEDu0aJ-86" value="&lt;h1&gt;storyline&lt;/h1&gt;&lt;div&gt;&lt;div style=&quot;font-size: 18px&quot;&gt;date:&amp;nbsp;&lt;i&gt;str&lt;/i&gt;&lt;/div&gt;&lt;div style=&quot;font-size: 18px&quot;&gt;&lt;i&gt;&lt;br&gt;&lt;/i&gt;&lt;/div&gt;&lt;div style=&quot;font-size: 18px&quot;&gt;summary:&amp;nbsp;&lt;i&gt;list&lt;/i&gt;&lt;/div&gt;&lt;blockquote style=&quot;font-size: 12px ; margin: 0px 0px 0px 40px ; border: none ; padding: 0px&quot;&gt;&lt;div style=&quot;font-size: 18px&quot;&gt;activity:&amp;nbsp;&lt;i&gt;str&lt;/i&gt;&lt;/div&gt;&lt;div style=&quot;font-size: 18px&quot;&gt;group:&amp;nbsp;&lt;i&gt;str&lt;/i&gt;&lt;/div&gt;&lt;div style=&quot;font-size: 18px&quot;&gt;duration:&amp;nbsp;&lt;i&gt;float&lt;/i&gt;&lt;/div&gt;&lt;div style=&quot;font-size: 18px&quot;&gt;distance:&amp;nbsp;&lt;i&gt;float&lt;/i&gt;&lt;/div&gt;&lt;div style=&quot;font-size: 18px&quot;&gt;steps:&amp;nbsp;&lt;i&gt;int&lt;/i&gt;&lt;/div&gt;&lt;/blockquote&gt;&lt;div style=&quot;font-size: 18px&quot;&gt;&lt;br&gt;&lt;/div&gt;&lt;div style=&quot;font-size: 18px&quot;&gt;segments:&amp;nbsp;&lt;i&gt;list&lt;/i&gt;&lt;/div&gt;&lt;blockquote style=&quot;margin: 0px 0px 0px 40px ; border: none ; padding: 0px&quot;&gt;&lt;div style=&quot;font-size: 18px&quot;&gt;type:&amp;nbsp;&lt;i&gt;str&lt;/i&gt;&lt;/div&gt;&lt;div style=&quot;font-size: 18px&quot;&gt;startTime:&amp;nbsp;&lt;i&gt;datetime_str&lt;/i&gt;&lt;/div&gt;&lt;div style=&quot;font-size: 18px&quot;&gt;endTime:&amp;nbsp;&lt;i&gt;datetime_str&lt;/i&gt;&lt;/div&gt;&lt;div style=&quot;font-size: 18px&quot;&gt;&lt;br&gt;&lt;/div&gt;&lt;div&gt;&lt;div style=&quot;font-size: 18px&quot;&gt;&lt;span style=&quot;background-color: rgb(213 , 232 , 212)&quot;&gt;place:&amp;nbsp;&lt;i&gt;dict&lt;/i&gt;&lt;/span&gt;&lt;/div&gt;&lt;blockquote style=&quot;margin: 0px 0px 0px 40px ; border: none ; padding: 0px&quot;&gt;&lt;div style=&quot;font-size: 18px&quot;&gt;&lt;span style=&quot;background-color: rgb(213 , 232 , 212)&quot;&gt;id:&amp;nbsp;&lt;i&gt;int&lt;/i&gt;&lt;/span&gt;&lt;/div&gt;&lt;div style=&quot;font-size: 18px&quot;&gt;&lt;span style=&quot;background-color: rgb(213 , 232 , 212)&quot;&gt;type:&amp;nbsp;&lt;i&gt;str&lt;/i&gt;&lt;/span&gt;&lt;/div&gt;&lt;div&gt;&lt;span style=&quot;font-size: 18px ; background-color: rgb(213 , 232 , 212)&quot;&gt;&lt;br&gt;&lt;/span&gt;&lt;div&gt;&lt;span style=&quot;background-color: rgb(213 , 232 , 212)&quot;&gt;&lt;font style=&quot;font-size: 18px&quot;&gt;location&lt;/font&gt;&lt;span style=&quot;font-size: 18px&quot;&gt;:&amp;nbsp;&lt;/span&gt;&lt;i style=&quot;font-size: 18px&quot;&gt;dict&lt;/i&gt;&lt;/span&gt;&lt;/div&gt;&lt;/div&gt;&lt;/blockquote&gt;&lt;blockquote style=&quot;font-size: 12px ; margin: 0px 0px 0px 40px ; border: none ; padding: 0px&quot;&gt;&lt;blockquote style=&quot;margin: 0px 0px 0px 40px ; border: none ; padding: 0px&quot;&gt;&lt;div style=&quot;font-size: 18px&quot;&gt;&lt;span style=&quot;background-color: rgb(213 , 232 , 212)&quot;&gt;lat:&amp;nbsp;&lt;i&gt;float&lt;/i&gt;&lt;/span&gt;&lt;/div&gt;&lt;/blockquote&gt;&lt;blockquote style=&quot;margin: 0px 0px 0px 40px ; border: none ; padding: 0px&quot;&gt;&lt;div style=&quot;font-size: 18px&quot;&gt;&lt;span style=&quot;background-color: rgb(213 , 232 , 212)&quot;&gt;lon:&amp;nbsp;&lt;i&gt;float&lt;/i&gt;&lt;/span&gt;&lt;/div&gt;&lt;/blockquote&gt;&lt;/blockquote&gt;&lt;/div&gt;&lt;div style=&quot;font-size: 18px&quot;&gt;&lt;br&gt;&lt;/div&gt;&lt;div style=&quot;font-size: 18px&quot;&gt;activities:&amp;nbsp;&lt;i&gt;list&lt;/i&gt;&lt;/div&gt;&lt;/blockquote&gt;&lt;blockquote style=&quot;font-size: 12px ; margin: 0px 0px 0px 40px ; border: none ; padding: 0px&quot;&gt;&lt;blockquote style=&quot;margin: 0px 0px 0px 40px ; border: none ; padding: 0px&quot;&gt;&lt;div style=&quot;font-size: 18px&quot;&gt;activity:&amp;nbsp;&lt;i&gt;str&lt;/i&gt;&lt;/div&gt;&lt;/blockquote&gt;&lt;blockquote style=&quot;margin: 0px 0px 0px 40px ; border: none ; padding: 0px&quot;&gt;&lt;div style=&quot;font-size: 18px&quot;&gt;group:&amp;nbsp;&lt;i&gt;str&lt;/i&gt;&lt;/div&gt;&lt;/blockquote&gt;&lt;blockquote style=&quot;margin: 0px 0px 0px 40px ; border: none ; padding: 0px&quot;&gt;&lt;div style=&quot;font-size: 18px&quot;&gt;manual:&amp;nbsp;&lt;i&gt;bool&lt;/i&gt;&lt;/div&gt;&lt;/blockquote&gt;&lt;blockquote style=&quot;margin: 0px 0px 0px 40px ; border: none ; padding: 0px&quot;&gt;&lt;div style=&quot;font-size: 18px&quot;&gt;startTime:&amp;nbsp;&lt;i&gt;datetime_str&lt;/i&gt;&lt;/div&gt;&lt;div style=&quot;font-size: 18px&quot;&gt;endTime:&amp;nbsp;&lt;i&gt;datetime_str&lt;/i&gt;&lt;/div&gt;&lt;div style=&quot;font-size: 18px&quot;&gt;duration:&amp;nbsp;&lt;i&gt;float&lt;/i&gt;&lt;/div&gt;&lt;div style=&quot;font-size: 18px&quot;&gt;distance:&amp;nbsp;&lt;i&gt;float&lt;/i&gt;&lt;/div&gt;&lt;div style=&quot;font-size: 18px&quot;&gt;steps:&amp;nbsp;&lt;i&gt;int&lt;/i&gt;&lt;/div&gt;&lt;div style=&quot;font-size: 18px&quot;&gt;&lt;br&gt;&lt;/div&gt;&lt;div style=&quot;font-size: 18px&quot;&gt;&lt;span style=&quot;background-color: rgb(204 , 229 , 255)&quot;&gt;trackPoints: &lt;i&gt;list&lt;/i&gt;&lt;/span&gt;&lt;/div&gt;&lt;/blockquote&gt;&lt;/blockquote&gt;&lt;/div&gt;&lt;blockquote style=&quot;margin: 0 0 0 40px ; border: none ; padding: 0px&quot;&gt;&lt;div&gt;&lt;blockquote style=&quot;font-size: 12px ; margin: 0px 0px 0px 40px ; border: none ; padding: 0px&quot;&gt;&lt;blockquote style=&quot;margin: 0px 0px 0px 40px ; border: none ; padding: 0px&quot;&gt;&lt;div style=&quot;font-size: 18px&quot;&gt;&lt;span style=&quot;background-color: rgb(204 , 229 , 255)&quot;&gt;&lt;span&gt;lat:&amp;nbsp;&lt;/span&gt;&lt;i&gt;float&lt;/i&gt;&lt;/span&gt;&lt;/div&gt;&lt;/blockquote&gt;&lt;/blockquote&gt;&lt;/div&gt;&lt;/blockquote&gt;&lt;div&gt;&lt;blockquote style=&quot;font-size: 12px ; margin: 0px 0px 0px 40px ; border: none ; padding: 0px&quot;&gt;&lt;blockquote style=&quot;margin: 0px 0px 0px 40px ; border: none ; padding: 0px&quot;&gt;&lt;blockquote style=&quot;margin: 0px 0px 0px 40px ; border: none ; padding: 0px&quot;&gt;&lt;div style=&quot;font-size: 18px&quot;&gt;&lt;span style=&quot;background-color: rgb(204 , 229 , 255)&quot;&gt;lon:&amp;nbsp;&lt;i&gt;float&lt;/i&gt;&lt;/span&gt;&lt;/div&gt;&lt;div style=&quot;font-size: 18px&quot;&gt;&lt;span style=&quot;background-color: rgb(204 , 229 , 255)&quot;&gt;time:&amp;nbsp;&lt;i&gt;datetime_str&lt;/i&gt;&lt;/span&gt;&lt;/div&gt;&lt;/blockquote&gt;&lt;/blockquote&gt;&lt;span style=&quot;font-size: 18px&quot;&gt;&lt;blockquote style=&quot;margin: 0px 0px 0px 40px ; border: none ; padding: 0px&quot;&gt;&lt;br&gt;&lt;/blockquote&gt;lastUpdate:&amp;nbsp;&lt;i&gt;datetime_str&lt;/i&gt;&lt;/span&gt;&lt;/blockquote&gt;&lt;br&gt;&lt;span style=&quot;font-size: 18px&quot;&gt;lastUpdate:&amp;nbsp;&lt;/span&gt;&lt;i style=&quot;font-size: 18px&quot;&gt;datetime_str&lt;/i&gt;&lt;br&gt;&lt;/div&gt;" style="text;html=1;strokeColor=none;fillColor=none;spacing=5;spacingTop=-20;whiteSpace=wrap;overflow=hidden;rounded=0;dashed=1;" parent="1" vertex="1">
          <mxGeometry x="10" y="520" width="310" height="892" as="geometry" />
        </mxCell>
        <mxCell id="ZM2d9JkgMeS6SzEDu0aJ-88" value="&lt;h1&gt;Data Structure Breakdown&lt;/h1&gt;&lt;div style=&quot;font-size: 20px&quot;&gt;1. All files represent &lt;b&gt;lists&lt;/b&gt;: daily files have a list of 1 object, bigger ones have several.&lt;/div&gt;&lt;div style=&quot;font-size: 20px&quot;&gt;&lt;br&gt;&lt;/div&gt;&lt;div style=&quot;font-size: 20px&quot;&gt;2. &lt;b&gt;Root &lt;/b&gt;and &lt;b&gt;segment&amp;nbsp;&lt;/b&gt;list elements have&amp;nbsp;&lt;b&gt;lastUpdate &lt;/b&gt;field.&lt;/div&gt;&lt;div style=&quot;font-size: 20px&quot;&gt;&lt;br&gt;&lt;/div&gt;&lt;div style=&quot;font-size: 20px&quot;&gt;3. &lt;b&gt;Summary &lt;/b&gt;data is identical in all data types (missing in places).&lt;/div&gt;&lt;div style=&quot;font-size: 20px&quot;&gt;&lt;br&gt;&lt;/div&gt;&lt;div style=&quot;font-size: 20px&quot;&gt;4. &lt;b&gt;Segments &lt;/b&gt;structure is present in all types (except summary) with main fields &lt;i&gt;{type, startTime, endTime, lastUpdate}&lt;/i&gt;, and &lt;b&gt;place/update&lt;/b&gt; depending on the &lt;b&gt;type &lt;/b&gt;field value.&lt;/div&gt;&lt;div style=&quot;font-size: 20px&quot;&gt;&lt;br&gt;&lt;/div&gt;&lt;div style=&quot;font-size: 20px&quot;&gt;5. &lt;b&gt;Type &lt;/b&gt;field in &lt;b&gt;segments &lt;/b&gt;can be &lt;i&gt;&quot;place&quot; or &quot;move&quot;.&lt;/i&gt;&lt;/div&gt;&lt;div style=&quot;font-size: 20px&quot;&gt;&lt;br&gt;&lt;/div&gt;&lt;div style=&quot;font-size: 20px&quot;&gt;6. In &lt;b&gt;Storyline&lt;/b&gt;, if segment is of &lt;b&gt;type &lt;/b&gt;&lt;i&gt;&quot;place&quot;&lt;/i&gt;, it &lt;b&gt;must have a place &lt;/b&gt;object and &lt;b&gt;may have activities&lt;/b&gt; object with &lt;b&gt;empty trackPoints&lt;/b&gt; field. If the &lt;b&gt;type &lt;/b&gt;is &lt;i&gt;&quot;move&quot;&lt;/i&gt;, it &lt;b&gt;can&#39;t have a place&lt;/b&gt; object, and &lt;b&gt;may have a list&lt;/b&gt; of &lt;i&gt;{lat, lon, time}&lt;/i&gt; objects in the &lt;b&gt;trackPoints &lt;/b&gt;field.&lt;/div&gt;&lt;div style=&quot;font-size: 20px&quot;&gt;&lt;br&gt;&lt;/div&gt;" style="text;html=1;strokeColor=none;fillColor=none;spacing=5;spacingTop=-20;whiteSpace=wrap;overflow=hidden;rounded=0;dashed=1;" parent="1" vertex="1">
          <mxGeometry x="-800" y="1190" width="760" height="480" as="geometry" />
        </mxCell>
        <mxCell id="ZM2d9JkgMeS6SzEDu0aJ-89" value="storyline" style="rounded=1;whiteSpace=wrap;html=1;dashed=1;fontSize=20;" parent="1" vertex="1">
          <mxGeometry x="-520" y="1710" width="210" height="120" as="geometry" />
        </mxCell>
        <mxCell id="ZM2d9JkgMeS6SzEDu0aJ-100" style="edgeStyle=orthogonalEdgeStyle;rounded=0;orthogonalLoop=1;jettySize=auto;html=1;exitX=0.5;exitY=0;exitDx=0;exitDy=0;entryX=0.5;entryY=1;entryDx=0;entryDy=0;fontSize=16;" parent="1" source="ZM2d9JkgMeS6SzEDu0aJ-90" target="ZM2d9JkgMeS6SzEDu0aJ-98" edge="1">
          <mxGeometry relative="1" as="geometry" />
        </mxCell>
        <mxCell id="ZM2d9JkgMeS6SzEDu0aJ-90" value="activities" style="rounded=1;whiteSpace=wrap;html=1;dashed=1;fontSize=20;" parent="1" vertex="1">
          <mxGeometry x="-670" y="1970" width="120" height="60" as="geometry" />
        </mxCell>
        <mxCell id="ZM2d9JkgMeS6SzEDu0aJ-97" style="edgeStyle=orthogonalEdgeStyle;rounded=0;orthogonalLoop=1;jettySize=auto;html=1;exitX=0.5;exitY=0;exitDx=0;exitDy=0;entryX=1;entryY=0.5;entryDx=0;entryDy=0;fontSize=16;" parent="1" source="ZM2d9JkgMeS6SzEDu0aJ-91" target="ZM2d9JkgMeS6SzEDu0aJ-89" edge="1">
          <mxGeometry relative="1" as="geometry" />
        </mxCell>
        <mxCell id="ZM2d9JkgMeS6SzEDu0aJ-91" value="places" style="rounded=1;whiteSpace=wrap;html=1;dashed=1;fontSize=20;" parent="1" vertex="1">
          <mxGeometry x="-260" y="1970" width="120" height="60" as="geometry" />
        </mxCell>
        <mxCell id="ZM2d9JkgMeS6SzEDu0aJ-94" style="edgeStyle=orthogonalEdgeStyle;rounded=0;orthogonalLoop=1;jettySize=auto;html=1;exitX=0.5;exitY=0;exitDx=0;exitDy=0;entryX=0.5;entryY=1;entryDx=0;entryDy=0;fontSize=16;" parent="1" source="ZM2d9JkgMeS6SzEDu0aJ-93" target="ZM2d9JkgMeS6SzEDu0aJ-90" edge="1">
          <mxGeometry relative="1" as="geometry" />
        </mxCell>
        <mxCell id="ZM2d9JkgMeS6SzEDu0aJ-93" value="summary" style="rounded=1;whiteSpace=wrap;html=1;dashed=1;fontSize=20;" parent="1" vertex="1">
          <mxGeometry x="-670" y="2110" width="120" height="60" as="geometry" />
        </mxCell>
        <mxCell id="ZM2d9JkgMeS6SzEDu0aJ-101" style="edgeStyle=orthogonalEdgeStyle;rounded=0;orthogonalLoop=1;jettySize=auto;html=1;exitX=0.5;exitY=0;exitDx=0;exitDy=0;entryX=0;entryY=0.5;entryDx=0;entryDy=0;fontSize=16;" parent="1" source="ZM2d9JkgMeS6SzEDu0aJ-98" target="ZM2d9JkgMeS6SzEDu0aJ-89" edge="1">
          <mxGeometry relative="1" as="geometry" />
        </mxCell>
        <mxCell id="ZM2d9JkgMeS6SzEDu0aJ-98" value="&lt;font style=&quot;font-size: 18px&quot;&gt;&lt;b&gt;+trackPoints&lt;/b&gt;&lt;/font&gt;" style="rhombus;whiteSpace=wrap;html=1;dashed=1;fontSize=16;" parent="1" vertex="1">
          <mxGeometry x="-675" y="1840" width="130" height="80" as="geometry" />
        </mxCell>
        <mxCell id="1bmePUG7oYwWA5CSSGxt-1" value="&lt;font style=&quot;font-size: 18px&quot;&gt;Get &lt;b&gt;activity &lt;/b&gt;from &lt;b&gt;files&lt;/b&gt;, specifying &lt;i&gt;period&lt;/i&gt;&lt;br&gt;and &lt;i&gt;date:&lt;br&gt;&lt;/i&gt;&lt;br&gt;&lt;i&gt;v1/{period}/activities?&lt;br&gt;year={year}, month={month}, day={day}&lt;/i&gt;&lt;br&gt;&lt;/font&gt;" style="rounded=1;whiteSpace=wrap;html=1;" vertex="1" parent="1">
          <mxGeometry x="840" y="280" width="360" height="120" as="geometry" />
        </mxCell>
        <mxCell id="1bmePUG7oYwWA5CSSGxt-2" value="v1" style="ellipse;whiteSpace=wrap;html=1;" vertex="1" parent="1">
          <mxGeometry x="960" y="180" width="120" height="80" as="geometry" />
        </mxCell>
        <mxCell id="1bmePUG7oYwWA5CSSGxt-3" value="&lt;font style=&quot;font-size: 18px&quot;&gt;Get &lt;b&gt;daily&amp;nbsp;activity &lt;/b&gt;from &lt;b&gt;files&lt;/b&gt;, &lt;br&gt;specifying &lt;i&gt;date&lt;/i&gt;:&lt;br&gt;&lt;br&gt;&lt;i&gt;v0/daily/activities/{date_YYYYMMDD}&lt;/i&gt;&lt;br&gt;&lt;/font&gt;" style="rounded=1;whiteSpace=wrap;html=1;" vertex="1" parent="1">
          <mxGeometry x="470" y="280" width="360" height="120" as="geometry" />
        </mxCell>
        <mxCell id="1bmePUG7oYwWA5CSSGxt-4" value="v0" style="ellipse;whiteSpace=wrap;html=1;" vertex="1" parent="1">
          <mxGeometry x="590" y="180" width="120" height="80" as="geometry" />
        </mxCell>
      </root>
    </mxGraphModel>
  </diagram>
</mxfile>
